<?xml version="1.0" encoding="utf-8"?>
<!-- Generator: Adobe Illustrator 22.0.0, SVG Export Plug-In . SVG Version: 6.00 Build 0)  -->
<svg version="1.1" id="Layer_1" xmlns="http://www.w3.org/2000/svg" xmlns:xlink="http://www.w3.org/1999/xlink" x="0px" y="0px"
	 viewBox="0 0 47 25" style="enable-background:new 0 0 47 25;" xml:space="preserve">
<style type="text/css">
	.st0{fill:#7B48AD;}
</style>
<g>
	<path class="st0" d="M46.8,12.3c0-6.2-5-11.2-11.2-11.2c-6.2,0-11.2,5-11.2,11.2c0,6.2,5,11.2,11.2,11.2
		C41.8,23.5,46.8,18.5,46.8,12.3z M32.8,16.7l3.9-3.9l-4.3-4.3L33.9,7l5.7,5.7l-5.4,5.4L32.8,16.7z"/>
</g>
<g>
	<path class="st0" d="M11.9,23.5c6.2,0,11.2-5,11.2-11.2c0-6.2-5-11.2-11.2-11.2c-6.2,0-11.2,5-11.2,11.2
		C0.8,18.5,5.8,23.5,11.9,23.5z M13.3,18.1l-5.4-5.4L13.6,7l1.4,1.4l-4.3,4.3l3.9,3.9L13.3,18.1z"/>
</g>
</svg>
