<?xml version="1.0" encoding="utf-8"?>
<!-- Generator: Adobe Illustrator 22.0.0, SVG Export Plug-In . SVG Version: 6.00 Build 0)  -->
<svg version="1.1" id="Layer_1" xmlns="http://www.w3.org/2000/svg" xmlns:xlink="http://www.w3.org/1999/xlink" x="0px" y="0px"
	 viewBox="0 0 147.3 32.8" style="enable-background:new 0 0 147.3 32.8;" xml:space="preserve">
<style type="text/css">
	.st0{fill:#7B48AD;}
	.st1{fill:#FFFFFF;}
</style>
<path class="st0" d="M131.5,32H15.5C7.2,32,0.4,25.2,0.4,16.9v-1c0-8.3,6.8-15.1,15.1-15.1l115.9,0c8.3,0,15.1,6.8,15.1,15.1v1
	C146.6,25.2,139.8,32,131.5,32z"/>
<g>
	<path class="st1" d="M37.7,13.2v3.2c0.3,0,0.5,0,0.7-0.1c0.2-0.1,0.4-0.3,0.5-0.5c0.2-0.2,0.3-0.4,0.5-0.6c0.1-0.2,0.3-0.4,0.5-0.5
		c0.2,0.1,0.4,0.3,0.6,0.5c0.2,0.2,0.3,0.4,0.4,0.7c0.1,0.2,0.2,0.5,0.3,0.8s0.1,0.5,0.1,0.8c0,0.9-0.2,1.6-0.7,2.2
		c-0.5,0.6-1.2,0.9-2.1,0.9c-2.4,0-3.7-2.3-4.2-6.8l0.5,0.3c0.1,0.6,0.2,1.2,0.3,1.8s0.3,1.1,0.6,1.5c0.6,1.2,1.5,1.8,2.7,1.8
		c0.4,0,0.8-0.1,1.2-0.3c0.4-0.2,0.7-0.5,0.9-0.8c0.2-0.3,0.3-0.7,0.3-1c0-0.4-0.1-0.7-0.5-1.1c-0.1,0.2-0.2,0.4-0.3,0.6
		c-0.2,0.2-0.3,0.4-0.5,0.5c-0.2,0.1-0.4,0.3-0.6,0.4s-0.5,0.2-0.7,0.2c-0.7,0-1.1-0.6-1.1-1.7v-2.7h-3.3l-0.8-0.8h8.6l0.8,0.8H37.7
		z"/>
	<path class="st1" d="M43.8,13.2v8.3L43,20.7v-5.9c0-0.2,0-0.5-0.1-0.7s-0.2-0.4-0.4-0.5c-0.2-0.1-0.4-0.2-0.6-0.3
		c-0.2-0.1-0.4-0.1-0.7-0.1l-0.8-0.8h0.9c0.5,0,0.9,0.1,1.1,0.3c0.3,0.2,0.5,0.6,0.6,1.1c0-0.2,0-0.4,0-0.6c0-0.2,0-0.5-0.1-0.8
		c0-0.3,0-0.6,0-0.8c0-0.2,0-0.4,0-0.6l0.3,0.2c0.1,0.6,0.3,1,0.5,1.2h0.6l0.8,0.8H43.8z"/>
	<path class="st1" d="M53.5,13.2H49v2.4c0,0.2,0,0.3,0.1,0.5c0.1,0.1,0.2,0.2,0.4,0.2c0.4-0.1,0.7-0.4,1-0.8
		c0.3-0.5,0.5-0.7,0.6-0.7c0.4,0,0.7,0.3,1,0.9c0.3,0.5,0.4,1,0.4,1.4c0,0.9-0.2,1.7-0.7,2.4c-0.6,0.6-1.3,0.9-2.2,1
		c-2.3,0-3.7-2.2-4.2-6.7l0.6,0.3c0,0.6,0.1,1.1,0.3,1.7c0.1,0.5,0.3,1.1,0.6,1.6c0.7,1.2,1.6,1.8,2.6,1.8c0.3,0,0.6-0.1,0.9-0.2
		c0.3-0.1,0.5-0.3,0.8-0.5c0.5-0.4,0.7-0.9,0.7-1.5c0-0.4-0.1-0.7-0.4-1c-0.1,0.2-0.2,0.4-0.4,0.6s-0.3,0.4-0.6,0.5
		c-0.2,0.2-0.4,0.3-0.6,0.4c-0.2,0.1-0.4,0.1-0.5,0.1c-0.2,0-0.3,0-0.5-0.1c-0.2-0.1-0.3-0.2-0.4-0.3c-0.1-0.1-0.2-0.3-0.3-0.4
		c-0.1-0.2-0.1-0.4-0.1-0.6v-3h-3.4L44,12.4h6.7c0.3,0,0.5-0.1,0.5-0.4c0-0.2-0.2-0.4-0.5-0.6c-0.2-0.1-0.5-0.1-0.7-0.1
		c-0.1,0-0.3,0-0.5,0s-0.4,0-0.7,0c-0.2,0-0.5,0-0.7,0c-0.2,0-0.4,0-0.5,0c-0.6,0-1.1-0.2-1.6-0.5c-0.6-0.3-0.8-0.8-0.8-1.3
		c0-0.5,0.1-0.8,0.4-0.9c0,0,0.1,0,0.1,0.1c0.1,0,0.1,0.1,0.2,0.1c-0.2,0.2-0.3,0.3-0.3,0.6c0,0.3,0.2,0.5,0.6,0.7
		c0.1,0.1,0.3,0.1,0.4,0.1c0.2,0,0.3,0.1,0.5,0.1c0.1,0,0.3,0,0.5,0c0.2,0,0.4,0,0.7,0c0.3,0,0.5,0,0.7,0s0.4,0,0.5,0
		c0.7,0,1.3,0.2,1.7,0.6c0.4,0.4,0.6,0.9,0.6,1.7h0.8L53.5,13.2z"/>
	<path class="st1" d="M59.6,13.2v8.5L59,21.3l0.1-0.8c0-0.9-0.2-1.8-0.6-2.8c-0.6-1.1-1.4-1.7-2.2-1.7c-0.1,0-0.2,0-0.2,0.1
		c0.3,0.5,0.5,0.8,0.5,1c0,0.3-0.1,0.6-0.3,0.9c-0.2,0.2-0.5,0.3-0.8,0.3c-1,0-1.5-0.5-1.5-1.5c0-0.5,0.2-1,0.6-1.3
		c0.4-0.4,0.9-0.5,1.4-0.5c1.1,0,2.1,0.9,2.9,2.6h0v-4.4h-5.6l-0.8-0.8h7.7l0.8,0.8H59.6z"/>
	<path class="st1" d="M65.8,13.2c-0.6,0.1-1.1,0.4-1.5,0.7c-0.4,0.3-0.8,0.7-1.1,1.1c-0.3,0.4-0.5,0.9-0.6,1.4
		c-0.1,0.5-0.2,1.1-0.2,1.7c0,0.6,0.2,1.1,0.5,1.5c0.5,0.7,1,1,1.5,0.8c-0.2-0.1-0.3-0.2-0.4-0.4s-0.1-0.3-0.1-0.5
		c0-0.2,0.1-0.5,0.3-0.6s0.4-0.3,0.7-0.3c0.3,0,0.5,0.1,0.7,0.3s0.3,0.5,0.3,0.8c0,0.2,0,0.4-0.1,0.5c-0.1,0.2-0.2,0.3-0.3,0.4
		c-0.1,0.1-0.3,0.2-0.5,0.3c-0.2,0.1-0.4,0.1-0.5,0.1c-0.9,0-1.6-0.5-2.1-1.4c-0.4-0.8-0.6-1.6-0.6-2.6c0-1.4,0.6-2.7,1.7-4h-2.6
		l-0.8-0.8H65L65.8,13.2z"/>
	<path class="st1" d="M72.6,13.2v8.3l-0.8-0.8v-4.5c0-0.3-0.1-0.5-0.3-0.7s-0.4-0.3-0.7-0.3c-0.5,0-0.7,0.3-0.7,0.8
		c0,0.1,0,0.3,0.1,0.5l-0.3,0.1c-0.1-0.4-0.3-0.8-0.6-1c-0.3-0.3-0.7-0.4-1.2-0.4c-0.2,0-0.4,0-0.6,0.1c-0.2,0.1-0.3,0.2-0.5,0.3
		c-0.1,0.1-0.2,0.3-0.3,0.5s-0.1,0.4-0.1,0.6c0,0.6,0.4,1,1.1,1.1c-0.2-0.3-0.3-0.5-0.3-0.7c0-0.2,0.1-0.4,0.3-0.6
		c0.2-0.2,0.4-0.3,0.6-0.3c0.7,0,1.1,0.4,1.1,1.2c0,0.3-0.1,0.6-0.3,0.8c-0.2,0.2-0.5,0.3-0.9,0.3c-0.3,0-0.7-0.1-0.9-0.2
		s-0.5-0.3-0.7-0.5c-0.2-0.2-0.4-0.4-0.5-0.7c-0.1-0.3-0.2-0.6-0.2-0.9c0-0.5,0.2-1,0.5-1.5c0.3-0.5,0.8-0.8,1.3-0.8
		c0.7,0,1.3,0.3,1.8,1c0-0.2,0.1-0.5,0.3-0.7c0.2-0.2,0.4-0.3,0.6-0.3c0.7,0,1.1,0.4,1.5,1.3v-2.2h-6.5l-0.8-0.8h8.7l0.8,0.8H72.6z"
		/>
	<path class="st1" d="M75.5,13.2v8.3l-0.8-0.8v-5.9c0-0.2,0-0.5-0.1-0.7s-0.2-0.4-0.4-0.5c-0.2-0.1-0.4-0.2-0.6-0.3
		c-0.2-0.1-0.4-0.1-0.7-0.1l-0.8-0.8h0.9c0.5,0,0.9,0.1,1.1,0.3c0.3,0.2,0.5,0.6,0.6,1.1c0-0.2,0-0.4,0-0.6c0-0.2,0-0.5-0.1-0.8
		c0-0.3,0-0.6,0-0.8c0-0.2,0-0.4,0-0.6l0.3,0.2c0.1,0.6,0.3,1,0.5,1.2H76l0.8,0.8H75.5z"/>
	<path class="st1" d="M80.6,13.2v3.2c0.3,0,0.5,0,0.7-0.1c0.2-0.1,0.4-0.3,0.5-0.5c0.2-0.2,0.3-0.4,0.5-0.6c0.1-0.2,0.3-0.4,0.5-0.5
		c0.2,0.1,0.4,0.3,0.6,0.5c0.2,0.2,0.3,0.4,0.4,0.7c0.1,0.2,0.2,0.5,0.3,0.8c0.1,0.3,0.1,0.5,0.1,0.8c0,0.9-0.2,1.6-0.7,2.2
		c-0.5,0.6-1.2,0.9-2.1,0.9c-2.4,0-3.7-2.3-4.2-6.8l0.5,0.3c0.1,0.6,0.2,1.2,0.3,1.8s0.3,1.1,0.6,1.5c0.6,1.2,1.5,1.8,2.7,1.8
		c0.4,0,0.8-0.1,1.2-0.3c0.4-0.2,0.7-0.5,0.9-0.8c0.2-0.3,0.3-0.7,0.3-1c0-0.4-0.1-0.7-0.5-1.1c-0.1,0.2-0.2,0.4-0.3,0.6
		s-0.3,0.4-0.5,0.5c-0.2,0.1-0.4,0.3-0.7,0.4c-0.2,0.1-0.5,0.2-0.7,0.2c-0.7,0-1.1-0.6-1.1-1.7v-2.7h-3.3l-0.8-0.8h8.6l0.8,0.8H80.6
		z"/>
	<path class="st1" d="M98.7,13.2h-1.5v8.3L97,21.4v0c-0.4-1.4-1-2.4-1.9-3c-0.2,0.3-0.5,0.6-0.9,0.8s-0.8,0.3-1.3,0.3
		c-0.3,0-0.5-0.1-0.8-0.2c-0.3-0.1-0.5-0.3-0.8-0.5c-0.3-0.2-0.5-0.5-0.8-0.7c-0.2-0.3-0.5-0.6-0.7-1c-0.3-0.4-0.5-0.9-0.6-1.5
		c-0.2-0.6-0.3-1.2-0.4-1.9l0.5,0.2c0.1,0.6,0.3,1.2,0.5,1.8s0.5,1,0.8,1.4c0.3,0.4,0.6,0.7,1,0.9c0.4,0.2,0.7,0.3,1.1,0.3
		c0.9,0,1.5-0.3,1.9-0.8c0.2-0.4,0.3-0.8,0.3-1.1c0-0.1,0-0.3,0-0.4c-0.1-0.2-0.2-0.4-0.3-0.6c-0.1-0.2-0.2-0.3-0.3-0.4
		c-0.2-0.1-0.3-0.2-0.5-0.2c-0.2,0-0.3,0-0.5,0c0.2,0.2,0.3,0.4,0.3,0.6c0,0.2,0,0.3-0.1,0.5c-0.1,0.2-0.2,0.3-0.4,0.4
		c-0.3,0.2-0.6,0.3-0.9,0.2c-0.3-0.1-0.6-0.2-0.8-0.5c-0.1-0.2-0.1-0.4-0.1-0.6c0-0.2,0.1-0.4,0.2-0.6c0.1-0.2,0.3-0.4,0.4-0.5
		c0.5-0.3,0.9-0.5,1.3-0.5c0.2,0,0.4,0,0.6,0.1c0.3,0.1,0.6,0.3,0.9,0.5c0.3,0.2,0.5,0.5,0.7,0.8c0.2,0.4,0.4,0.9,0.4,1.5
		c0,0.4-0.1,0.8-0.2,1.2l1,0.9v-5.4h-7.8l-0.8-0.8h10.1L98.7,13.2z"/>
	<path class="st1" d="M101.4,13.2c-0.7,0-1.1,0.5-1.2,1.5c0,0.7,0.1,1.4,0.2,2.2c0.1,0.5,0.2,0.9,0.2,1.3c0,0.4,0.1,0.7,0.1,0.9
		c0,0.3-0.1,0.6-0.2,0.9c-0.1,0.3-0.3,0.6-0.6,0.9c-0.2,0.2-0.5,0.4-0.7,0.5c-0.3,0.2-0.5,0.3-0.8,0.4l-0.5-0.3
		c0.3-0.1,0.5-0.2,0.8-0.3c0.2-0.1,0.4-0.3,0.6-0.5c0.2-0.3,0.3-0.7,0.3-1.3c0-0.2,0-0.4-0.1-0.7c-0.1-0.3-0.1-0.6-0.2-0.9
		C99.1,16.9,99,16.4,99,16c-0.1-1,0.3-1.9,1.2-2.8H98l-0.8-0.8h4l0.8,0.8H101.4z"/>
	<path class="st1" d="M103.2,13.2v8.3l-0.8-0.8v-5.9c0-0.2,0-0.5-0.1-0.7c-0.1-0.2-0.2-0.4-0.4-0.5c-0.2-0.1-0.4-0.2-0.6-0.3
		c-0.2-0.1-0.4-0.1-0.7-0.1l-0.8-0.8h0.9c0.5,0,0.9,0.1,1.1,0.3c0.3,0.2,0.5,0.6,0.6,1.1c0-0.2,0-0.4,0-0.6c0-0.2,0-0.5-0.1-0.8
		c0-0.3,0-0.6,0-0.8c0-0.2,0-0.4,0-0.6l0.3,0.2c0.1,0.6,0.3,1,0.5,1.2h0.6l0.8,0.8H103.2z"/>
	<path class="st1" d="M111.8,13.2v8.2l-0.8-0.8l0.1-4.2c0-0.1,0-0.3-0.1-0.4c-0.1-0.1-0.1-0.3-0.2-0.5c-0.1-0.2-0.2-0.3-0.3-0.4
		s-0.2-0.2-0.3-0.3l-2.8,2.8l-1.1-0.4c0.5-0.5,0.8-0.9,0.8-1.2c0-0.5-0.2-0.8-0.5-0.8c-0.1,0-0.2,0-0.2,0c-0.1,0-0.2,0.1-0.3,0.1
		c-0.2,0.1-0.4,0.2-0.6,0.2c-0.2,0-0.3-0.1-0.4-0.2s-0.2-0.3-0.2-0.4c0-0.3,0.1-0.6,0.3-0.8c0.2-0.3,0.5-0.5,0.9-0.8
		c0.3-0.2,0.7-0.4,1-0.5c0.3-0.1,0.7-0.2,1-0.2c1.2,0,2.2,0.9,3.2,2.6l0,0c0-0.7-0.1-1.4-0.1-2.1c0-0.7-0.1-1.4-0.1-2.1l0.4,0.3
		c0,0.4,0.1,0.7,0.1,0.8c0.1,0.3,0.3,0.4,0.6,0.4c0.1,0,0.2,0,0.3,0l0.8,0.8H111.8z M109.4,14c-0.4-0.4-0.8-0.6-1.2-0.6
		c-0.9,0-1.5,0.4-1.8,1.1c0.4,0,0.7,0.1,0.9,0.4c0.2,0.3,0.3,0.6,0.2,1.1L109.4,14z"/>
</g>
<g>
	<path class="st1" d="M21.4,8.9h-5.8c-0.6,0-1.1,0.5-1.1,1.1v12.7c0,0.6,0.5,1.1,1.1,1.1h5.8c0.6,0,1.1-0.5,1.1-1.1V10
		C22.5,9.4,22,8.9,21.4,8.9z M17.8,9.5h1.4c0.1,0,0.1,0,0.1,0.1c0,0.1,0,0.1-0.1,0.1h-1.4C17.7,9.7,17.7,9.7,17.8,9.5
		C17.7,9.6,17.7,9.5,17.8,9.5z M16.3,9.3c0.1,0,0.1,0.1,0.1,0.1s-0.1,0.1-0.1,0.1s-0.1-0.1-0.1-0.1S16.3,9.3,16.3,9.3z M15.7,9.2
		c0.1,0,0.2,0.1,0.2,0.2c0,0.1-0.1,0.2-0.2,0.2s-0.2-0.1-0.2-0.2S15.5,9.2,15.7,9.2z M18.9,23.2h-0.7c-0.2,0-0.4-0.2-0.4-0.4
		c0-0.2,0.2-0.4,0.4-0.4h0.7c0.2,0,0.4,0.2,0.4,0.4C19.3,23,19.1,23.2,18.9,23.2z M22,22H15V10.6H22V22z"/>
</g>
<path class="st1" d="M130.7,12.2c-0.2-0.2-0.4-0.2-0.6,0c-0.2,0.2-0.2,0.4,0,0.6l3.1,3.1H123c-0.2,0-0.4,0.2-0.4,0.4
	c0,0.2,0.2,0.4,0.4,0.4h10.1l-3.1,3.1c-0.2,0.2-0.2,0.4,0,0.6c0.2,0.2,0.4,0.2,0.6,0l3.8-3.8c0.2-0.2,0.2-0.4,0-0.6L130.7,12.2z"/>
</svg>
