<?xml version="1.0" encoding="utf-8"?>
<!-- Generator: Adobe Illustrator 22.0.0, SVG Export Plug-In . SVG Version: 6.00 Build 0)  -->
<svg version="1.1" id="Layer_1" xmlns="http://www.w3.org/2000/svg" xmlns:xlink="http://www.w3.org/1999/xlink" x="0px" y="0px"
	 viewBox="0 0 50 50" style="enable-background:new 0 0 50 50;" xml:space="preserve">
<style type="text/css">
	.st0{fill:#3A3A3A;}
</style>
<g>
	<g>
		<path class="st0" d="M47.8,32.5c-0.5-0.5-1.2-0.8-1.9-0.8H32.7l-3.9,3.9c-1.1,1.1-2.4,1.6-3.9,1.6c-1.5,0-2.8-0.5-3.9-1.6
			l-3.8-3.9H4.1c-0.8,0-1.4,0.3-1.9,0.8c-0.5,0.5-0.8,1.2-0.8,1.9v9.1c0,0.8,0.3,1.4,0.8,1.9c0.5,0.5,1.2,0.8,1.9,0.8h41.8
			c0.8,0,1.4-0.3,1.9-0.8c0.5-0.5,0.8-1.2,0.8-1.9v-9.1C48.6,33.7,48.3,33,47.8,32.5z M37.2,42.1c-0.4,0.4-0.8,0.5-1.3,0.5
			c-0.5,0-0.9-0.2-1.3-0.5c-0.4-0.4-0.5-0.8-0.5-1.3c0-0.5,0.2-0.9,0.5-1.3c0.4-0.4,0.8-0.5,1.3-0.5s0.9,0.2,1.3,0.5
			c0.4,0.4,0.5,0.8,0.5,1.3C37.7,41.3,37.5,41.7,37.2,42.1z M44.4,42.1c-0.4,0.4-0.8,0.5-1.3,0.5c-0.5,0-0.9-0.2-1.3-0.5
			c-0.4-0.4-0.5-0.8-0.5-1.3c0-0.5,0.2-0.9,0.5-1.3c0.4-0.4,0.8-0.5,1.3-0.5c0.5,0,0.9,0.2,1.3,0.5c0.4,0.4,0.5,0.8,0.5,1.3
			C45,41.3,44.8,41.7,44.4,42.1z"/>
		<path class="st0" d="M23.7,33c0.3,0.4,0.8,0.5,1.3,0.5c0.5,0,0.9-0.2,1.3-0.5L39,20.3c0.6-0.5,0.7-1.2,0.4-2
			c-0.3-0.7-0.9-1.1-1.7-1.1h-7.3V4.4c0-0.5-0.2-0.9-0.5-1.3c-0.4-0.4-0.8-0.5-1.3-0.5h-7.3c-0.5,0-0.9,0.2-1.3,0.5
			c-0.4,0.4-0.5,0.8-0.5,1.3v12.7h-7.3c-0.8,0-1.4,0.4-1.7,1.1c-0.3,0.8-0.2,1.4,0.4,2L23.7,33z"/>
	</g>
</g>
</svg>
