<?xml version="1.0" encoding="utf-8"?>
<!-- Generator: Adobe Illustrator 22.0.0, SVG Export Plug-In . SVG Version: 6.00 Build 0)  -->
<svg version="1.1" id="Layer_1" xmlns="http://www.w3.org/2000/svg" xmlns:xlink="http://www.w3.org/1999/xlink" x="0px" y="0px"
	 viewBox="0 0 50 50" style="enable-background:new 0 0 50 50;" xml:space="preserve">
<style type="text/css">
	.st0{fill:#3A3A3A;}
</style>
<path class="st0" d="M39.9,8.8C32.1,1.6,20.4,1.1,12,7.4c-0.5,0.4-1.1,0.8-1.6,1.3C1.5,16.9,0.9,30.6,9,39.5
	c7.6,8.3,20.4,9.5,29.3,2.6c0.5-0.4,1.1-0.8,1.6-1.3c8.8-8.1,9.4-21.9,1.3-30.7C40.8,9.6,40.3,9.2,39.9,8.8L39.9,8.8z M39,38.3
	c-1.1-0.9-2.2-1.7-3.4-2.3c1-3.2,1.6-6.6,1.6-9.9h7.2C44.1,30.6,42.2,34.9,39,38.3z M37,40c-0.2,0.1-0.4,0.3-0.6,0.4
	c-0.3,0.2-0.6,0.4-0.8,0.6c-0.2,0.1-0.4,0.3-0.6,0.4c-0.3,0.2-0.6,0.3-0.9,0.5c-0.2,0.1-0.4,0.2-0.7,0.3c-0.3,0.1-0.6,0.3-0.9,0.4
	c-0.2,0.1-0.4,0.2-0.6,0.2c1.1-1.4,2.1-3,2.8-4.7c0.9,0.5,1.7,1.1,2.5,1.7C37.1,39.9,37.1,40,37,40z M16.8,42.2
	c-0.2-0.1-0.4-0.2-0.6-0.3c-0.3-0.2-0.6-0.3-0.9-0.5c-0.2-0.1-0.4-0.2-0.6-0.4c-0.3-0.2-0.6-0.4-0.8-0.6c-0.2-0.1-0.4-0.3-0.6-0.4
	c-0.1,0-0.1-0.1-0.2-0.2c0.8-0.6,1.6-1.2,2.5-1.7c0.7,1.7,1.6,3.3,2.8,4.7c-0.2-0.1-0.4-0.2-0.6-0.2C17.4,42.5,17.1,42.4,16.8,42.2
	L16.8,42.2z M11.3,11.3c1.1,0.9,2.2,1.7,3.4,2.3c-1,3.2-1.6,6.6-1.6,9.9H5.8C6.1,19,8.1,14.6,11.3,11.3z M13.3,9.5
	c0.2-0.1,0.4-0.3,0.6-0.4c0.3-0.2,0.6-0.4,0.8-0.6c0.2-0.1,0.4-0.3,0.6-0.4c0.3-0.2,0.6-0.3,0.9-0.5c0.2-0.1,0.4-0.2,0.7-0.3
	c0.3-0.1,0.6-0.3,0.9-0.4c0.2-0.1,0.4-0.2,0.6-0.2c-1.1,1.4-2.1,3-2.8,4.7c-0.9-0.5-1.7-1.1-2.5-1.7C13.1,9.6,13.2,9.6,13.3,9.5z
	 M33.5,7.3c0.2,0.1,0.4,0.2,0.6,0.3C34.4,7.8,34.7,8,35,8.1c0.2,0.1,0.4,0.2,0.6,0.4c0.3,0.2,0.6,0.4,0.8,0.6
	c0.2,0.1,0.4,0.3,0.6,0.4c0.1,0,0.1,0.1,0.2,0.2c-0.8,0.6-1.6,1.2-2.5,1.7c-0.7-1.7-1.6-3.3-2.8-4.7c0.2,0.1,0.4,0.2,0.6,0.2
	C32.9,7,33.2,7.2,33.5,7.3L33.5,7.3z M23.9,13.8c-2.1-0.1-4.2-0.6-6.2-1.4c1.5-3.6,3.7-6.2,6.2-6.8V13.8z M23.9,16.3v7.3h-8.4
	c0.1-3,0.6-6,1.5-8.9C19.2,15.6,21.5,16.1,23.9,16.3L23.9,16.3z M23.9,26v7.3c-2.4,0.1-4.8,0.7-7,1.6C16.1,32,15.6,29,15.5,26H23.9z
	 M23.9,35.7V44c-2.4-0.6-4.6-3.2-6.2-6.8C19.7,36.3,21.8,35.8,23.9,35.7z M26.4,35.7c2.1,0.1,4.2,0.6,6.2,1.4
	c-1.5,3.6-3.7,6.2-6.2,6.8V35.7z M26.4,33.3V26h8.4c-0.1,3-0.6,6-1.4,8.9C31.1,34,28.8,33.4,26.4,33.3L26.4,33.3z M26.4,23.6v-7.3
	c2.4-0.1,4.8-0.7,7-1.6c0.9,2.9,1.4,5.9,1.4,8.9L26.4,23.6L26.4,23.6z M26.4,13.8V5.6c2.4,0.6,4.6,3.2,6.2,6.8
	C30.6,13.2,28.5,13.7,26.4,13.8z M13.1,26c0.1,3.4,0.6,6.7,1.6,9.9c-1.2,0.7-2.4,1.4-3.4,2.3C8.1,34.9,6.1,30.6,5.8,26H13.1z
	 M37.2,23.6c-0.1-3.4-0.6-6.7-1.6-9.9c1.2-0.7,2.4-1.4,3.4-2.3c3.2,3.3,5.2,7.7,5.4,12.3L37.2,23.6L37.2,23.6z"/>
</svg>
