<?xml version="1.0" encoding="utf-8"?>
<!-- Generator: Adobe Illustrator 22.0.0, SVG Export Plug-In . SVG Version: 6.00 Build 0)  -->
<svg version="1.1" id="Layer_1" xmlns="http://www.w3.org/2000/svg" xmlns:xlink="http://www.w3.org/1999/xlink" x="0px" y="0px"
	 viewBox="0 0 110 20" style="enable-background:new 0 0 110 20;" xml:space="preserve">
<style type="text/css">
	.st0{fill:#3A3A3A;}
	.st1{fill:none;stroke:#3A3A3A;stroke-width:0.5;stroke-miterlimit:10;}
</style>
<g>
	<g>
		<path class="st0" d="M98,15.4l-2.7-2.7c0.7-0.8,1.2-1.9,1.2-3.1c0-2.6-2.1-4.7-4.7-4.7C89.1,5,87,7.1,87,9.7s2.1,4.7,4.7,4.7
			c1.2,0,2.3-0.4,3.1-1.2l2.7,2.7c0.1,0.1,0.1,0.1,0.2,0.1c0.1,0,0.2,0,0.2-0.1C98.1,15.8,98.1,15.6,98,15.4z M87.7,9.7
			c0-2.2,1.8-4,4-4c2.2,0,4,1.8,4,4s-1.8,4.1-4,4.1C89.5,13.7,87.7,11.9,87.7,9.7z"/>
	</g>
	<path class="st1" d="M98.5,19.5h-87c-5,0-9-4-9-9v0c0-5,4-9,9-9h87c5,0,9,4,9,9v0C107.5,15.5,103.5,19.5,98.5,19.5z"/>
</g>
</svg>
